# xmcd CD database file
#
# Track frame offsets:
#	150
#	10727
#	34932
#	45552
#	57595
#	72782
#	93657
#	108947
#	122220
#	135715
#
# Disc length: 1976 seconds
#
# Revision: 0
# Processed by: cddbd v1.5.1PL0 Copyright (c) Steve Scherf et al.
# Submitted via: CDex 1.60beta1
#
DISCID=8907b60a
DTITLE=The Faux Freshmen - Scratchin' The Surface
DYEAR=1999
DGENRE=Jazz
TTITLE0=Shangrila
TTITLE1=Estate
TTITLE2=Spring Isn't Spring Without You
TTITLE3=Please Walk Softly
TTITLE4=The Trouble With Hello Is Goodbye
TTITLE5=Chelsea Bridge
TTITLE6=Oh, Lovely Winter
TTITLE7=Green Fields
TTITLE8=The Freshmen Years
TTITLE9=Old Friends
EXTD=YEAR: 1999
EXTT0=
EXTT1=
EXTT2=
EXTT3=
EXTT4=
EXTT5=
EXTT6=
EXTT7=
EXTT8=
EXTT9=
PLAYORDER=
